<svg xmlns="http://www.w3.org/2000/svg" viewBox="0 0 48 48"><defs><style>.cls-1{fill:#7c7d7d;}.cls-2{fill:#919191;}.cls-3{fill:#9fdbf3;}.cls-4{fill:#b2e5fb;}.cls-5{fill:#edebf2;}.cls-6{fill:#db5669;}.cls-7{fill:#f26674;}.cls-8{fill:#9dcc6b;}.cls-9{fill:#b5e08c;}</style></defs><title>Chat in smartphone</title><g id="Chat_in_smartphone" data-name="Chat in smartphone"><path class="cls-1" d="M37,4V6H29.75L29,7H19l-.75-1H11V4a3,3,0,0,1,2-2.82C13.66.92,12.2,1,34,1A3,3,0,0,1,37,4Z"/><path class="cls-2" d="M37,4H15a2,2,0,0,1-2-2V1.18C13.66.92,12.2,1,34,1A3,3,0,0,1,37,4Z"/><path class="cls-1" d="M37,41c0,2.87.06,3.24-.13,3.87A3,3,0,0,1,34,47H14a3,3,0,0,1-3-3V41Z"/><path class="cls-2" d="M37,41c0,2.87.06,3.24-.13,3.87-.62.18,1,.13-20.87.13a3,3,0,0,1-3-3V41Z"/><polygon class="cls-3" points="37 6 37 41 11 41 11 6 18.25 6 19 7 29 7 29.75 6 37 6"/><path class="cls-4" d="M37,6V39H19a6,6,0,0,1-6-6V6h5.25L19,7H29l.75-1Z"/><path class="cls-5" d="M26,5H22a1,1,0,0,1,0-2h4A1,1,0,0,1,26,5Z"/><path class="cls-6" d="M45,17c0,10.73.07,10.34-.18,11A3,3,0,0,1,42,30H32l-5,2V17a3,3,0,0,1,3-3H42A3,3,0,0,1,45,17Z"/><path class="cls-7" d="M45,17c0,10.73.07,10.34-.18,11H33a4,4,0,0,1-4-4V14.18A2.77,2.77,0,0,1,30,14H42A3,3,0,0,1,45,17Z"/><path class="cls-5" d="M41,19H31a1,1,0,0,1,0-2H41A1,1,0,0,1,41,19Z"/><path class="cls-5" d="M41,27H31a1,1,0,0,1,0-2H41A1,1,0,0,1,41,27Z"/><path class="cls-5" d="M41,23H31a1,1,0,0,1,0-2H41A1,1,0,0,1,41,23Z"/><path class="cls-8" d="M21,19V34l-5-2H6a3,3,0,0,1-3-3V19a3,3,0,0,1,2-2.82c.66-.26,0-.18,13-.18A3,3,0,0,1,21,19Z"/><path class="cls-9" d="M21,19V30H9a4,4,0,0,1-4-4V16.18A2.77,2.77,0,0,1,6,16H18A3,3,0,0,1,21,19Z"/><path class="cls-5" d="M17,21H7a1,1,0,0,1,0-2H17A1,1,0,0,1,17,21Z"/><path class="cls-5" d="M17,29H7a1,1,0,0,1,0-2H17A1,1,0,0,1,17,29Z"/><path class="cls-5" d="M17,25H7a1,1,0,0,1,0-2H17A1,1,0,0,1,17,25Z"/></g></svg>